<svg xmlns="http://www.w3.org/2000/svg" viewBox="0 0 300 40"><path fill-rule="evenodd" clip-rule="evenodd" fill="#FFF" d="M296.096 7.04v10.05h-1.174V7.04h-4.261c-1.517 0-2.06.747-2.06 2.28v1.344h3.778v1.247H288.6v1.632c0 1.514.614 2.3 1.843 2.3h1.935v1.247h-1.627c-2.204 0-3.325-1.21-3.325-3.548v-4.22c0-2.302 1.12-3.53 3.217-3.53h8.36V7.04h-2.906zm-11.24 10.05h-1.175V7.04h-2.603V5.79h6.38V7.04h-2.602v10.05zm-5.596-9.475l-3.656 9.474h-1.43V5.79h1.177v9.475l3.657-9.475h1.43V17.09h-1.177V7.614zm-9.787 5.927v-4.22c0-2.36 1.193-3.53 3.11-3.53h.632V7.04h-.723c-1.32 0-1.844.805-1.844 2.28v4.222c0 1.477.524 2.3 1.844 2.3h.723v1.247h-.633c-1.916 0-3.11-1.21-3.11-3.548zm-4.156-1.344h-1.265v4.89h-1.175V5.793h2.44c2.333 0 3.49 1.055 3.49 3.184 0 2.417-1.265 3.222-3.49 3.222zm0-5.16h-1.265v3.914h1.265c1.393 0 2.314-.326 2.314-1.976 0-1.554-.83-1.937-2.313-1.937zm-8.413 6.504v-4.22c0-2.302 1.12-3.53 3.217-3.53h1.737V7.04h-1.718c-1.52 0-2.06.747-2.06 2.28v1.344h3.777v1.247h-3.778v1.632c0 1.514.613 2.3 1.842 2.3h1.935v1.247h-1.627c-2.205 0-3.326-1.21-3.326-3.548zm-4.05 3.547h-2.585V5.79h2.584c2.26 0 3.38 1.075 3.38 3.012 0 1.38-.633 2.052-1.627 2.493 1.067.403 1.628 1.17 1.628 2.57 0 2.187-1.14 3.222-3.38 3.222zm2.205-8.286c0-1.286-.797-1.765-2.206-1.765h-1.41v3.624h1.41c1.428 0 2.205-.518 2.205-1.86zm-2.206 3.107h-1.41v3.933h1.41c1.247 0 2.205-.307 2.205-1.976 0-1.42-.778-1.956-2.206-1.956zm-4.79-4.295l-3.658 9.474h-1.428V5.79h1.175v9.475l3.656-9.475h1.428V17.09h-1.175V7.614zm-7.295 4.296h-3.58v5.18h-1.176V5.88l-5.168 11.382h-1.373l2.314-5.14-3.363-6.33h1.374l2.622 4.95 2.24-4.95H237.19v4.872h3.58V5.792h1.174V17.09h-1.175v-5.18zm-6.618 11.58h.77l2.406 4.96 2.422-4.96h1.3l-3.198 6.152v5.17h-1.176v-5.17l-2.524-4.902h-2.603v10.072h-1.177V24.74l-3.04.055v-1.25l6.16-.054h.66zm-8.48 0h1.175v11.322h-1.176v-11.32zm-3.207 5.024c1.79.546 2.57 2.264 2.066 4.13-.548 2.03-2.136 2.548-3.89 2.013l-.85-.26.322-1.202.695.213c1.268.386 2.215.295 2.604-1.146.445-1.645-.417-2.287-1.842-2.722l-.173-.053c-1.774-.54-2.612-2.036-2.118-3.864.463-1.72 1.934-2.57 3.845-1.988l.888.27-.325 1.202-.695-.212c-1.287-.392-2.216-.296-2.6 1.127-.427 1.59.547 2.025 1.9 2.44l.175.052zm-.934-20.55l-3.655 9.477h-1.428V6.143h1.175v9.476l3.656-9.476h1.428V17.44h-1.175V7.964zm-2.114-2.703c-.886 0-1.554-.48-2.297-1.208l.85-.863c.47.46.922.824 1.41.824.56 0 1.03-.326 1.518-.825l.832.862c-.74.787-1.482 1.21-2.314 1.21zM216.17 29.74l2.855 5.074h-1.465l-2.658-4.902h-1.23v4.902h-3.798c-2.206 0-3.327-1.21-3.327-3.556v-4.228c0-2.308 1.12-3.537 3.218-3.537h1.736v1.25h-1.717c-1.52 0-2.06.75-2.06 2.288v1.345h3.778v1.25h-3.778v1.633c0 1.52.615 2.307 1.844 2.307h2.93V23.49h2.442c2.333 0 3.49 1.02 3.49 3.153 0 2.038-.958 2.69-2.26 3.095zm-1.232-4.998h-1.267v3.922h1.268c1.212 0 2.314-.212 2.314-1.98 0-1.634-.94-1.942-2.314-1.942zm-.823-18.598h1.176V17.44h-1.175V6.142zm-3.903 11.3h-2.585V6.14h1.175v4.872h1.21c2.387 0 3.58 1.344 3.58 3.204 0 2.187-1.14 3.223-3.38 3.223zm0-5.18h-1.41v3.93h1.41c1.248 0 2.205-.305 2.205-1.974 0-1.343-.777-1.957-2.205-1.957zm-4.923 0h-3.58v5.18h-1.176V6.14h1.175v4.872h3.58V6.142h1.173V17.44h-1.174v-5.18zm-2.546 20.916l2.314-9.687h1.25l-2.86 11.322h-1.807l-2.855-11.32h1.247l2.46 9.686h.252zm-6.24-15.737h-2.585V6.143h1.173v4.872h1.21c2.39 0 3.582 1.344 3.582 3.204 0 2.187-1.14 3.223-3.38 3.223zm0-5.18h-1.41v3.933h1.41c1.248 0 2.205-.306 2.205-1.975 0-1.343-.778-1.957-2.206-1.957zm-1.07 22.552h-1.175V26.97c0-1.345-.236-2.403-1.79-2.403-1.483 0-1.79 1-1.79 2.403v7.842h-1.177V26.97c0-2.403.832-3.653 2.966-3.653 2.17 0 2.964 1.21 2.964 3.653v7.842zm-3.7-27.452H190.3c-1.32 0-1.844.806-1.844 2.282v3.51c0 2.283-.365 3.357-2.3 4.26h-1.174v-5.18h-3.58v5.18h-1.174V9.527c0-2.38 1.156-3.587 2.964-3.587 1.898 0 2.965 1.19 2.965 3.588v6.56c.93-.62 1.123-1.18 1.123-2.82V9.642c0-2.36 1.195-3.53 3.11-3.53h2.518v11.3h-1.175V7.36zm-6.752 2.168c0-1.516-.49-2.34-1.79-2.34-1.266 0-1.79.806-1.79 2.34v1.458h3.58V9.528zm-8.91 2.992h-1.266v4.89h-1.175V6.114h2.442c2.333 0 3.49 1.055 3.49 3.185 0 2.417-1.267 3.222-3.49 3.222zm0-5.16h-1.266v3.913h1.266c1.392 0 2.314-.326 2.314-1.975 0-1.554-.832-1.938-2.314-1.938zm-7.154 4.873v1.63c0 1.515.616 2.3 1.844 2.3h1.935v1.248h-1.627c-2.206 0-3.327-1.208-3.327-3.547v-4.22c0-2.302 1.12-3.53 3.218-3.53h1.737V7.36h-1.718c-1.52 0-2.062.75-2.062 2.282v1.344h2.137c1.674.005 1.676.017 1.676.017v1.228l-1.675.003h-2.137zm-.885 6.55h-1.175V17.41h-6.743v1.372h-1.176v-1.37h-1.44c-2.206 0-3.328-1.21-3.328-3.55v-4.22c0-2.3 1.122-3.53 3.22-3.53h1.735V7.36h-1.718c-1.52 0-2.06.75-2.06 2.282v1.344h3.777v1.247h-3.778v1.63c0 1.515.612 2.3 1.843 2.3h1.934l.68-.035c.922-.69.887-1.46.887-2.86V9.642c0-2.36 1.192-3.53 3.11-3.53h2.82V16.26h1.41v2.522zM165.448 7.36h-1.735c-1.32 0-1.845.806-1.845 2.282v3.51c0 1.15-.125 2.322-.615 3.108h4.195v-8.9zm-10.086 17.467h-1.72c-1.517 0-2.06.75-2.06 2.287v1.345h3.78v1.248h-3.78v1.635c0 1.52.615 2.307 1.844 2.307h1.936v1.25h-1.628c-2.207 0-3.327-1.212-3.327-3.557v-4.23c0-2.306 1.12-3.536 3.218-3.536h1.737v1.25zm-4.965-8.99h-.632v1.574h-1.176V15.84h-.633c-1.917 0-3.11-1.208-3.11-3.548v-1.074c0-2.36 1.193-3.53 3.11-3.53h.632V6.114h1.175v1.574h.632c1.917 0 3.11 1.17 3.11 3.53v1.073c0 2.34-1.193 3.548-3.11 3.548zm-1.808-6.904h-.723c-1.32 0-1.845.807-1.845 2.283v1.074c0 1.476.524 2.302 1.845 2.302h.722v-5.66zm3.742 2.283c0-1.476-.525-2.283-1.845-2.283h-.722v5.66h.722c1.32 0 1.845-.827 1.845-2.303v-1.074zm-2.948 16.263v3.516c0 3.077-.922 3.903-3.31 3.903h-2.603V23.576h2.605c2.387 0 3.31.845 3.31 3.902zm-4.738 6.17h1.555c1.628 0 2.01-.75 2.01-2.46v-3.922c0-1.807-.472-2.44-2.01-2.44h-1.554v8.822zm-7.43-2.307v-4.23c0-2.306 1.123-3.536 3.22-3.536h1.736v1.25h-1.718c-1.52 0-2.062.75-2.062 2.287v1.345h3.78v1.248h-3.78v1.635c0 1.52.615 2.307 1.845 2.307h1.935v1.25h-1.628c-2.205 0-3.327-1.212-3.327-3.557zm.394-23.556l-3.657 9.475h-1.427V5.965h1.175v9.475l3.657-9.475h1.43v11.297h-1.177V7.787zm-1.812-2.705c-.885 0-1.554-.478-2.296-1.208l.85-.863c.47.462.92.827 1.41.827.56 0 1.03-.327 1.52-.826l.83.864c-.74.787-1.483 1.208-2.314 1.208zm-5.67 2.705l-3.658 9.475h-2.854l-4.307-5.39v5.39h-1.176V5.965h1.175v5.026l3.8-5.025h1.374l-4.163 5.35 4.722 5.78V5.964h1.175v9.475l3.657-9.475h1.427v11.297h-1.172V7.787zM116.56 29.693h-3.58v5.19h-1.175V26.98c0-2.38 1.158-3.593 2.965-3.593 1.9 0 2.966 1.193 2.966 3.594v7.903h-1.175v-5.19zm0-2.712c0-1.516-.488-2.343-1.79-2.343-1.265 0-1.79.808-1.79 2.344v1.463h3.58V26.98zm-3.403-13.266v-4.22c0-2.36 1.193-3.53 3.11-3.53h.632v1.248h-.725c-1.318 0-1.843.806-1.843 2.282v4.22c0 1.476.525 2.302 1.843 2.302h.724v1.246h-.633c-1.917 0-3.11-1.208-3.11-3.548zm-3.903-1.342h-1.266v4.89h-1.175V5.965h2.44c2.334 0 3.49 1.055 3.49 3.184 0 2.416-1.265 3.222-3.49 3.222zm0-5.16h-1.266v3.912h1.266c1.392 0 2.314-.326 2.314-1.975 0-1.554-.83-1.938-2.314-1.938zm-4.665.532l-3.658 9.476h-1.428V5.922h1.175v9.476l3.655-9.476h1.428V17.22h-1.174V7.744zm-3.537 17.066h-1.718c-1.518 0-2.062.75-2.062 2.288v1.345h3.78v1.25h-3.78v1.634c0 1.518.616 2.306 1.845 2.306h1.935v1.25h-1.627c-2.206 0-3.328-1.212-3.328-3.556v-4.23c0-2.306 1.122-3.536 3.218-3.536h1.737v1.25zm-6.166-14.146c2.078 0 3.597 1.13 3.597 3.318 0 2.053-1.284 3.28-3.02 3.28-1.825 0-3-1.266-3-3.203V5.79h4.755V7.04h-3.58v3.624h1.247zM93.64 14c0 1.306.686 2.016 1.806 2.016 1.103 0 1.863-.71 1.863-1.995 0-1.304-.906-2.11-2.334-2.11H93.64V14zm1.528 12.578c0 1.384-.633 2.057-1.627 2.5 1.067.403 1.628 1.172 1.628 2.576 0 2.19-1.14 3.23-3.38 3.23H89.2V23.56h2.587c2.26 0 3.38 1.077 3.38 3.018zm-4.792 7.055h1.41c1.248 0 2.207-.307 2.207-1.98 0-1.42-.777-1.96-2.206-1.96h-1.41v3.94zm1.41-8.823h-1.41v3.633h1.41c1.43 0 2.207-.52 2.207-1.865 0-1.287-.796-1.768-2.206-1.768zM90.01 7.744L86.35 17.22h-1.428V5.922h1.174v9.476l3.657-9.476h1.428V17.22H90.01V7.744zm-5.337 17.573l-.68-.262c-1.257-.487-2.19-.46-2.666.932-.533 1.552.41 2.06 1.735 2.573l.17.067c1.75.676 2.414 2.446 1.79 4.27-.68 1.99-2.298 2.385-4.014 1.722l-.833-.324.402-1.174.68.263c1.24.48 2.19.46 2.673-.95.55-1.608-.267-2.313-1.66-2.852l-.17-.065c-1.733-.67-2.472-2.224-1.86-4.013.576-1.68 2.1-2.42 3.967-1.697l.868.335-.402 1.174zm-4.645-11.603v-4.22c0-2.36 1.194-3.53 3.11-3.53h.633v1.248h-.723c-1.32 0-1.844.806-1.844 2.282v4.22c0 1.476.525 2.302 1.844 2.302h.724v1.246h-.632c-1.916 0-3.11-1.208-3.11-3.548zM62.08 36.458c-3.34.11-5.78-1.39-8.617-2.22-7.08-2.07-12.757-1.645-16.158-.94.66-.7 1.064-1.645 1.064-2.68 0-1.944-1.422-3.557-3.285-3.868v-2.715c1.843-.33 3.24-1.93 3.24-3.86 0-1.927-1.397-3.53-3.24-3.86v-2.704c.954-.16 1.792-.66 2.382-1.37l2.347 1.347c-.15.416-.233.863-.233 1.33 0 1.944 1.422 3.556 3.286 3.867v2.702c-1.864.312-3.285 1.924-3.285 3.868 0 2.166 1.766 3.92 3.943 3.92 2.178 0 3.942-1.754 3.942-3.92 0-1.944-1.42-3.556-3.285-3.868v-2.702c1.865-.31 3.285-1.923 3.285-3.867 0-2.166-1.764-3.92-3.942-3.92-1.237 0-2.34.566-3.063 1.453l-2.335-1.342c.158-.425.244-.885.244-1.365 0-2.047-1.576-3.727-3.587-3.905-.09-.01-.183-.018-.275-.02L34.516 0c.33.243.562.474.902.706.33.242.746.522 1.265.822 5.267 3.264 11.472 5.146 18.114 5.146 5.016 0 9.854-.52 14.154-2.45l.024 25.49s.046.547-.02.685c-.466 3.347-2.28 5.908-6.874 6.058zm-27.557-1.932l-.016 4.47C31.77 34.61 24.69 31.4 16.22 31.04c-.7-.04-1.41-.062-2.127-.062-5.02 0-9.788 1.15-14.093 3.22L.01 1.68s6.672 4.234 15.496 3.98c6.35-.182 5.008-.555 9.04-.698 5.286-.187 9.278 3.404 9.268 8.644l-.007 2.608-.026.075c-1.885.292-3.328 1.915-3.328 3.873 0 1.958 1.443 3.58 3.33 3.874v2.7c-.968.16-1.815.673-2.407 1.398l-2.41-1.384c.15-.414.234-.862.234-1.328 0-1.943-1.422-3.556-3.287-3.867v-2.702c1.865-.312 3.286-1.925 3.286-3.868 0-2.166-1.767-3.92-3.944-3.92s-3.942 1.754-3.942 3.92c0 1.943 1.42 3.556 3.285 3.868v2.702c-1.866.31-3.286 1.924-3.286 3.867 0 2.165 1.765 3.92 3.942 3.92 1.238 0 2.34-.565 3.064-1.453l2.41 1.383c-.152.415-.235.864-.235 1.33 0 2.16 1.862 3.91 4.028 3.923zm53.05.357h-1.175V23.56h1.174v11.323zm20.71-8.17c0 2.038-.958 2.69-2.26 3.095l3.28 4.995V23.56h1.176v11.323h-2.59l-3.133-4.902h-1.23v4.903h-1.174V23.56h2.44c2.332 0 3.49 1.02 3.49 3.153zm-4.756 2.018h1.266c1.21 0 2.315-.21 2.315-1.98 0-1.632-.94-1.94-2.315-1.94h-1.266v3.92zm18.498-5.343c2.17 0 2.965 1.212 2.965 3.653v7.843h-1.175V27.04c0-1.345-.234-2.403-1.79-2.403-1.482 0-1.79 1-1.79 2.403v7.843h-1.175V27.04c0-2.403.83-3.653 2.965-3.653zm12.41.19h1.646v1.25h-1.933c-1.302 0-1.845.653-1.845 2.287v1.345h3.78v1.248h-3.78v5.19h-1.175v-7.784c0-2.384 1.102-3.537 3.31-3.537zm28.157 3.152c0 2.037-.96 2.69-2.26 3.094l3.28 4.976V27c0-2.385 1.157-3.597 2.966-3.597 1.898 0 2.965 1.193 2.965 3.596v7.9h-1.175v-5.192h-3.58v5.19h-2.576l-3.146-4.9h-1.23v4.9h-1.175V23.58h2.44c2.333 0 3.492 1.018 3.492 3.15zm2.196 1.73h3.58V27c0-1.52-.488-2.347-1.79-2.347-1.266 0-1.79.808-1.79 2.346v1.46zm-6.952.288h1.265c1.213 0 2.316-.212 2.316-1.98 0-1.634-.94-1.94-2.315-1.94h-1.264v3.92zm14.207 4.902h4.03v1.25h-5.206V23.576h1.176V33.65zm11.38-2.317c0 1.385.254 2.403 1.792 2.403 1.465 0 1.79-.98 1.79-2.403V23.49h1.175v7.843c0 2.422-.905 3.653-2.965 3.653-2.133 0-2.966-1.23-2.966-3.653V23.49h1.174v7.843zm14.814 3.48h-1.176V23.49h1.177v11.322z"/></svg>