<svg xmlns="http://www.w3.org/2000/svg" viewBox="0 0 252 40"><path fill-rule="evenodd" clip-rule="evenodd" fill="#FFF" d="M249.675 8.89v7.97h-.94V8.89h-3.412c-1.215 0-1.65.593-1.65 1.81v1.064h3.025v.99h-3.026v1.292c0 1.2.493 1.825 1.476 1.825h1.55v.99h-1.303c-1.766 0-2.663-.96-2.663-2.814V10.7c0-1.825.897-2.8 2.575-2.8H252v.99h-2.327zm-8.998 7.97h-.94V8.89h-2.085V7.9h5.11v.99h-2.085v7.97zm-4.48-7.513l-2.926 7.513h-1.143V7.9h.94v7.515l2.93-7.514h1.142v8.96h-.942V9.347zm-7.833 4.7V10.7c0-1.87.954-2.8 2.488-2.8h.507v.99h-.58c-1.057 0-1.476.64-1.476 1.81v3.346c0 1.17.42 1.825 1.476 1.825h.58v.99h-.508c-1.534 0-2.488-.96-2.488-2.814zm-3.327-1.066h-1.013v3.88h-.94V7.9h1.953c1.867 0 2.793.838 2.793 2.526 0 1.917-1.013 2.555-2.793 2.555zm0-4.09h-1.013v3.103h1.013c1.114 0 1.852-.26 1.852-1.567 0-1.232-.667-1.536-1.853-1.536zm-6.735 5.156V10.7c0-1.825.897-2.8 2.575-2.8h1.39v.99h-1.375c-1.216 0-1.65.593-1.65 1.81v1.064h3.025v.99h-3.025v1.292c0 1.2.492 1.825 1.476 1.825h1.55v.99h-1.304c-1.765 0-2.662-.96-2.662-2.814zm-3.243 2.814h-2.07V7.9h2.07c1.81 0 2.706.853 2.706 2.39 0 1.094-.507 1.627-1.303 1.976.854.32 1.303.928 1.303 2.04 0 1.733-.912 2.554-2.707 2.554zm1.765-6.57c0-1.02-.637-1.4-1.766-1.4h-1.13v2.874h1.13c1.143 0 1.765-.41 1.765-1.475zm-1.766 2.463h-1.13v3.118h1.13c.998 0 1.765-.242 1.765-1.565 0-1.126-.622-1.552-1.766-1.552zm-3.836-3.406l-2.928 7.513h-1.142V7.9h.94v7.515L211.02 7.9h1.145v8.96h-.94V9.347zm-5.84 3.406h-2.864v4.107h-.94V7.97l-4.138 9.027h-1.1l1.853-4.076-2.692-5.02h1.1l2.1 3.926 1.793-3.925H202.52v3.864h2.865V7.9h.94v8.96h-.94v-4.107zm-5.296 9.183h.617l1.926 3.932 1.94-3.932h1.04l-2.56 4.878v4.1h-.94v-4.1l-2.022-3.887h-2.084v7.986h-.94v-7.986l-2.433.042v-.99l4.93-.044h.528zm-6.788 0h.94v8.977h-.94v-8.977zm-2.567 3.983c1.433.432 2.056 1.794 1.654 3.273-.44 1.61-1.71 2.02-3.116 1.597l-.68-.206.26-.953.556.17c1.015.306 1.773.234 2.084-.91.355-1.303-.335-1.813-1.475-2.158l-.14-.04c-1.42-.43-2.09-1.616-1.694-3.066.372-1.362 1.55-2.038 3.08-1.576l.71.214-.26.953-.557-.168c-1.03-.31-1.774-.236-2.08.893-.343 1.26.436 1.606 1.52 1.934l.14.042zm-.748-16.296l-2.926 7.514h-1.145v-8.96h.94v7.515l2.928-7.514h1.142v8.958h-.94V9.624zm-1.693-2.144c-.71 0-1.244-.38-1.84-.96l.682-.683c.377.365.74.654 1.13.654.448 0 .825-.257 1.215-.653l.665.684c-.594.626-1.187.96-1.853.96zm-2.6 19.41l2.287 4.023h-1.173l-2.13-3.887h-.984v3.887h-3.04c-1.766 0-2.663-.96-2.663-2.82V24.74c0-1.83.897-2.804 2.576-2.804h1.39v.99h-1.375c-1.215 0-1.65.595-1.65 1.814v1.067h3.026v.99h-3.026v1.297c0 1.204.493 1.83 1.477 1.83h2.346v-7.988h1.955c1.866 0 2.793.807 2.793 2.5 0 1.615-.766 2.133-1.808 2.453zm-.984-3.963h-1.015v3.11h1.015c.97 0 1.85-.17 1.85-1.572 0-1.294-.75-1.538-1.85-1.538zm-.66-14.748h.942v8.958h-.942v-8.96zm-3.124 8.958h-2.07v-8.96h.942v3.864h.97c1.91 0 2.864 1.066 2.864 2.54 0 1.735-.912 2.556-2.706 2.556zm0-4.107h-1.128v3.12h1.128c1 0 1.765-.244 1.765-1.567 0-1.066-.623-1.552-1.766-1.552zm-3.94 0h-2.867v4.108h-.94v-8.96h.94v3.864h2.866V8.18h.94v8.958h-.94V13.03zm-2.038 16.588l1.852-7.682h1l-2.288 8.977h-1.447l-2.286-8.977h.997l1.97 7.682h.202zm-4.996-12.48h-2.07v-8.96h.94v3.864h.97c1.912 0 2.867 1.066 2.867 2.54 0 1.735-.912 2.556-2.707 2.556zm0-4.107h-1.13v3.12h1.13c1 0 1.766-.244 1.766-1.567 0-1.066-.622-1.552-1.766-1.552zm-.856 17.883h-.94v-6.22c0-1.065-.19-1.904-1.433-1.904-1.186 0-1.432.79-1.432 1.904v6.22h-.94v-6.22c0-1.905.664-2.896 2.373-2.896 1.737 0 2.374.96 2.374 2.896v6.22zM166.13 9.145h-1.146c-1.057 0-1.476.638-1.476 1.81v2.783c0 1.81-.292 2.66-1.84 3.377h-.94v-4.107h-2.867v4.107h-.94v-6.25c0-1.888.927-2.846 2.375-2.846 1.52 0 2.373.942 2.373 2.844v5.202c.744-.492.9-.936.9-2.236v-2.876c0-1.87.955-2.798 2.488-2.798h2.016v8.96h-.94v-7.97zm-5.403 1.72c0-1.203-.39-1.858-1.432-1.858-1.014 0-1.434.64-1.434 1.857v1.155h2.867v-1.156zm-7.133 2.37h-1.013v3.88h-.94v-8.96h1.954c1.868 0 2.794.837 2.794 2.526 0 1.918-1.014 2.556-2.794 2.556zm0-4.09h-1.013v3.102h1.014c1.115 0 1.853-.258 1.853-1.566 0-1.23-.666-1.535-1.853-1.535zm-5.726 3.863v1.294c0 1.2.492 1.824 1.476 1.824h1.55v.99h-1.304c-1.765 0-2.663-.96-2.663-2.814v-3.348c0-1.824.898-2.798 2.576-2.798h1.39v.99h-1.375c-1.216 0-1.65.592-1.65 1.808v1.065h1.71c1.34.004 1.342.013 1.342.013v.974h-3.052zm-.71 5.194h-.94v-1.087h-5.397v1.087h-.94v-1.087h-1.153c-1.765 0-2.663-.96-2.663-2.813v-3.348c0-1.824.898-2.798 2.576-2.798h1.39v.99h-1.376c-1.215 0-1.65.592-1.65 1.808v1.065h3.026v.988h-3.025v1.294c0 1.2.492 1.824 1.476 1.824h1.55l.544-.03c.74-.546.71-1.156.71-2.266v-2.876c0-1.87.954-2.798 2.49-2.798h2.256v8.046h1.13v2zm-2.068-9.057h-1.39c-1.056 0-1.476.638-1.476 1.81v2.783c0 .912-.1 1.84-.493 2.464h3.36V9.145zm-8.074 13.85h-1.376c-1.215 0-1.65.595-1.65 1.814v1.065h3.026v.99h-3.026v1.297c0 1.205.492 1.83 1.476 1.83h1.55v.99h-1.303c-1.767 0-2.664-.96-2.664-2.82V24.81c0-1.83.896-2.806 2.576-2.806h1.39v.99zm-3.975-7.128h-.505v1.248h-.94v-1.248h-.507c-1.534 0-2.49-.958-2.49-2.813v-.852c0-1.87.956-2.798 2.49-2.798h.506V8.156h.94v1.248h.507c1.536 0 2.49.927 2.49 2.798v.852c0 1.855-.954 2.813-2.49 2.813zm-1.446-5.475h-.578c-1.058 0-1.476.64-1.476 1.81v.852c0 1.17.418 1.825 1.476 1.825h.578V10.39zm2.997 1.81c0-1.17-.42-1.81-1.476-1.81h-.58v4.487h.58c1.056 0 1.477-.656 1.477-1.826v-.852zM132.23 25.1v2.787c0 2.44-.738 3.095-2.65 3.095h-2.083v-8.978h2.084c1.912 0 2.65.67 2.65 3.095zm-3.792 4.892h1.245c1.302 0 1.607-.595 1.607-1.952v-3.11c0-1.432-.377-1.935-1.607-1.935h-1.245v6.997zm-5.947-1.83V24.81c0-1.83.9-2.806 2.577-2.806h1.39v.99h-1.375c-1.216 0-1.65.596-1.65 1.815v1.065h3.025v.99h-3.025v1.297c0 1.205.492 1.83 1.476 1.83h1.55v.99h-1.304c-1.765 0-2.663-.96-2.663-2.82zm.315-18.68l-2.927 7.515h-1.143v-8.96h.94v7.515l2.928-7.514h1.143v8.96h-.94V9.482zm-1.45-2.143c-.71-.002-1.245-.38-1.838-.96l.68-.684c.376.365.738.655 1.13.655.448 0 .824-.258 1.215-.654l.665.685c-.593.624-1.187.958-1.852.958zm-4.54 2.143l-2.927 7.514h-2.284l-3.448-4.274v4.274h-.94v-8.96h.94v3.987l3.043-3.986h1.1l-3.333 4.243 3.78 4.583V8.038h.94v7.514l2.927-7.514h1.143v8.96h-.94V9.482zm-10.86 17.37h-2.866v4.116h-.942v-6.266c0-1.89.927-2.85 2.374-2.85 1.52 0 2.374.945 2.374 2.85v6.265h-.94v-4.116zm0-2.15c0-1.203-.39-1.858-1.433-1.858-1.013 0-1.433.64-1.433 1.86v1.158h2.865v-1.16zm-2.725-10.52v-3.346c0-1.87.955-2.8 2.49-2.8h.506v.99h-.58c-1.055 0-1.475.64-1.475 1.81v3.346c0 1.17.42 1.825 1.477 1.825h.58v.99h-.507c-1.535 0-2.49-.96-2.49-2.815zm-3.124-1.064h-1.014v3.877h-.94v-8.96h1.954c1.867 0 2.793.838 2.793 2.526 0 1.917-1.014 2.556-2.794 2.556zm0-4.093h-1.014v3.102h1.014c1.114 0 1.852-.26 1.852-1.567 0-1.23-.665-1.536-1.852-1.536zm-3.735.422l-2.926 7.513H92.3v-8.96h.942v7.515l2.926-7.514h1.144v8.96h-.94V9.448zm-2.83 13.53h-1.374c-1.215 0-1.65.596-1.65 1.816v1.067h3.025v.99h-3.025v1.296c0 1.203.493 1.828 1.477 1.828h1.55v.99h-1.304c-1.765 0-2.664-.96-2.664-2.82v-3.352c0-1.83.9-2.804 2.577-2.804h1.39v.99zm-4.935-11.216c1.663 0 2.88.898 2.88 2.632 0 1.627-1.028 2.6-2.418 2.6-1.46 0-2.4-1.004-2.4-2.54V7.9h3.805v.99h-2.866v2.874h1zm-1 2.647c0 1.035.55 1.598 1.447 1.598.883 0 1.492-.563 1.492-1.582 0-1.034-.725-1.673-1.868-1.673h-1.07v1.658zm1.225 9.974c0 1.098-.507 1.63-1.302 1.982.853.32 1.302.93 1.302 2.043 0 1.736-.912 2.56-2.707 2.56h-2.07V21.99h2.07c1.81 0 2.707.853 2.707 2.392zm-3.836 5.594h1.13c.998 0 1.766-.243 1.766-1.57 0-1.127-.623-1.554-1.767-1.554h-1.13v3.124zm1.13-6.997h-1.13v2.883h1.13c1.143 0 1.766-.412 1.766-1.48 0-1.02-.638-1.402-1.767-1.402zM84.7 9.45l-2.927 7.513H80.63v-8.96h.94v7.515l2.926-7.514h1.144v8.96h-.94V9.448zm-4.272 13.934l-.543-.208c-1.008-.386-1.754-.364-2.135.74-.426 1.23.33 1.633 1.39 2.04l.135.052c1.4.537 1.933 1.94 1.432 3.388-.544 1.576-1.84 1.89-3.213 1.364l-.666-.256.322-.93.544.208c.993.38 1.753.363 2.14-.754.44-1.275-.214-1.834-1.33-2.26l-.135-.053c-1.39-.532-1.98-1.764-1.49-3.182.46-1.33 1.68-1.92 3.176-1.346l.694.266-.322.93zm-3.718-9.2v-3.347c0-1.87.956-2.8 2.49-2.8h.506v.99h-.58c-1.055 0-1.476.64-1.476 1.81v3.346c0 1.17.42 1.825 1.476 1.825h.58v.99H79.2c-1.534 0-2.49-.96-2.49-2.815zM62.08 36.457c-3.34.11-5.78-1.39-8.617-2.22-7.08-2.07-12.757-1.645-16.158-.94.66-.7 1.064-1.644 1.064-2.68 0-1.944-1.422-3.557-3.285-3.868v-2.715c1.843-.33 3.24-1.93 3.24-3.86 0-1.927-1.397-3.53-3.24-3.86v-2.704c.954-.16 1.792-.66 2.382-1.37l2.347 1.347c-.15.416-.233.863-.233 1.33 0 1.944 1.422 3.556 3.286 3.868v2.7c-1.864.313-3.285 1.925-3.285 3.87 0 2.165 1.766 3.92 3.943 3.92 2.178 0 3.942-1.755 3.942-3.92 0-1.945-1.42-3.557-3.285-3.87v-2.7c1.864-.312 3.285-1.924 3.285-3.868 0-2.166-1.764-3.92-3.942-3.92-1.237 0-2.34.566-3.063 1.453l-2.335-1.342c.158-.425.244-.885.244-1.365 0-2.047-1.576-3.727-3.587-3.905-.09-.01-.183-.018-.275-.02L34.516 0c.33.244.562.474.902.706.33.242.746.522 1.265.822 5.267 3.264 11.472 5.146 18.114 5.146 5.016 0 9.854-.52 14.154-2.45l.024 25.49s.046.547-.02.685c-.466 3.347-2.28 5.908-6.874 6.058zm-28.3-20.17c-1.885.295-3.328 1.917-3.328 3.875s1.443 3.58 3.33 3.874v2.7c-.968.162-1.815.673-2.407 1.398l-2.41-1.384c.15-.414.234-.862.234-1.328 0-1.943-1.422-3.556-3.287-3.867v-2.702c1.865-.31 3.286-1.925 3.286-3.867 0-2.167-1.767-3.922-3.944-3.922s-3.942 1.756-3.942 3.922c0 1.942 1.42 3.556 3.285 3.867v2.702c-1.866.31-3.286 1.924-3.286 3.867 0 2.165 1.765 3.92 3.942 3.92 1.238 0 2.34-.565 3.063-1.453l2.41 1.383c-.152.415-.235.864-.235 1.33 0 2.16 1.862 3.91 4.028 3.923l-.016 4.47C31.77 34.61 24.69 31.4 16.22 31.04c-.7-.04-1.41-.06-2.127-.06-5.02 0-9.788 1.15-14.093 3.22L.01 1.68s6.672 4.235 15.496 3.98c6.35-.182 5.008-.555 9.04-.698 5.286-.187 9.278 3.404 9.268 8.644l-.007 2.608-.026.075zm48.97 14.68h-.94v-8.976h.94v8.977zm16.58-6.477c0 1.617-.768 2.134-1.81 2.455l2.626 3.96v-8.913h.94v8.977h-2.072l-2.508-3.887h-.984v3.886h-.94V21.99h1.952c1.868 0 2.795.807 2.795 2.5zm-3.808 1.6h1.012c.97 0 1.854-.167 1.854-1.568 0-1.296-.753-1.54-1.854-1.54h-1.012v3.11zm14.807-4.236c1.736 0 2.373.96 2.373 2.896v6.22h-.94v-6.22c0-1.066-.188-1.905-1.434-1.905-1.187 0-1.434.792-1.434 1.905v6.22h-.94v-6.22c0-1.905.665-2.896 2.373-2.896zm9.934.15h1.317v.99h-1.547c-1.042 0-1.477.52-1.477 1.815v1.065h3.025v.99h-3.024v4.117h-.94V24.81c0-1.89.882-2.806 2.648-2.806zm22.54 2.5c0 1.616-.768 2.134-1.81 2.454l2.626 3.946v-6.187c0-1.89.926-2.85 2.374-2.85 1.52 0 2.374.945 2.374 2.85v6.265h-.94v-4.116h-2.867v4.116h-2.06l-2.52-3.886h-.983v3.886h-.942v-8.978h1.954c1.866 0 2.793.808 2.793 2.5zm1.757 1.37h2.867v-1.157c0-1.204-.39-1.86-1.433-1.86-1.013 0-1.433.64-1.433 1.86v1.158zm-5.563.23h1.012c.97 0 1.853-.167 1.853-1.57 0-1.295-.753-1.54-1.854-1.54h-1.013v3.11zm11.372 3.888h3.226v.99h-4.168v-8.978h.94v7.988zm9.11-1.837c0 1.097.203 1.905 1.434 1.905 1.172 0 1.432-.777 1.432-1.905v-6.22h.94v6.22c0 1.92-.723 2.896-2.372 2.896-1.708 0-2.375-.975-2.375-2.895v-6.22h.94v6.22zm11.858 2.758h-.94v-8.977h.94v8.977z"/></svg>