<svg xmlns="http://www.w3.org/2000/svg" width="101" height="77"><path fill-rule="evenodd" clip-rule="evenodd" fill="#FFF" fill-opacity=".5" d="M90.62 76.94c-5.734 0-10.378-4.706-10.378-10.51 0-5.808 4.644-10.513 10.378-10.513s10.378 4.705 10.378 10.512c0 5.804-4.645 10.51-10.378 10.51zM62.837 44.22c-.425-.428-.822-.923-1.187-1.48-.366-.554-.67-1.11-.912-1.665-.246-.616-.365-1.08-.365-1.387h-.184c-1.647 1.91-3.564 3.423-5.758 4.532-2.192 1.11-4.566 1.665-7.123 1.665-2.802 0-5.3-.617-7.493-1.85-2.192-1.232-4.05-2.836-5.572-4.81s-2.68-4.193-3.47-6.66c-.793-2.53-1.19-5.088-1.19-7.678 0-3.024.428-6.016 1.282-8.977.85-3.02 2.13-5.703 3.835-8.045 1.706-2.344 3.806-4.227 6.303-5.645C43.563.738 46.515 0 49.865 0c1.34 0 2.62.183 3.838.556 1.277.306 2.435.677 3.47 1.11 1.035.43 1.95.83 2.742 1.202.852.307 1.49.46 1.92.46.24 0 .637-.12 1.186-.368.61-.31 1.25-.648 1.918-1.018.67-.37 1.28-.74 1.826-1.11L68.134 0c.367.122.55.34.55.648v37.747c0 1.478.09 2.587.274 3.33.243.675.61 1.14 1.097 1.386.548.247 1.246.372 2.1.372.854-.063 1.918-.092 3.198-.092v1.48H64.207c-.424 0-.88-.216-1.37-.65zm-3.194-33.21c-.43-1.605-1.1-3.055-2.01-4.35-.855-1.295-1.95-2.345-3.29-3.146-1.34-.863-2.894-1.294-4.66-1.294-2.192 0-4.05.555-5.572 1.667-1.46 1.044-2.648 2.402-3.56 4.068-.916 1.604-1.585 3.423-2.01 5.46-.366 1.972-.547 3.884-.547 5.733 0 2.222.272 4.564.82 7.035.55 2.465 1.398 4.746 2.558 6.844 1.158 2.098 2.65 3.854 4.478 5.275 1.886 1.354 4.14 2.034 6.758 2.034 1.28 0 2.65-.398 4.11-1.2 1.524-.805 2.713-1.667 3.565-2.593l.093-20.815c0-1.542-.245-3.115-.73-4.717z"/><path fill-rule="evenodd" clip-rule="evenodd" fill="#FFF" fill-opacity=".2" d="M10.38 76.94C4.647 76.94 0 72.233 0 66.43c0-5.808 4.648-10.51 10.38-10.51 5.732 0 10.38 4.702 10.38 10.51 0 5.804-4.648 10.51-10.38 10.51zm0-39.218C4.647 37.722 0 33.018 0 27.212 0 21.404 4.648 16.7 10.38 16.7c5.732 0 10.377 4.705 10.377 10.51 0 5.808-4.645 10.512-10.378 10.512zm41.077 18.195c5.732 0 10.378 4.705 10.378 10.512 0 5.804-4.646 10.51-10.378 10.51-5.73 0-10.38-4.706-10.38-10.51 0-5.808 4.65-10.513 10.38-10.513z"/></svg>