<svg xmlns="http://www.w3.org/2000/svg" width="192" height="145"><path fill="#FFF" d="M98.936.057v34.976h-8.411L80.344 19.89h-4.26v15.143H72.26V.057h8.2c7.577 0 11.34 3.15 11.34 9.737 0 6.295-3.114 8.315-7.347 9.56L95.118 34.79V.056h3.818zm-22.853 3.86v12.112h4.378c3.938 0 7.522-.652 7.522-6.118 0-5.047-3.055-5.996-7.52-5.996h-4.38zm31.046 15.017v16.1h-3.818V11.028c0-7.367 3.758-10.974 9.633-10.974 6.17 0 9.637 3.55 9.637 10.973v24.003h-3.82v-16.1H107.13zm0-3.86h11.632v-4.045c0-4.694-1.586-7.25-5.817-7.25-4.113 0-5.816 2.498-5.816 7.25v4.043zm-82.623 19.96H20.69V.056h3.817v34.976zM68.107.056v3.86h-5.382c-4.934 0-6.63 2.318-6.63 7.065v4.09h12.012v3.862H56.095v5.113c0 4.69 1.93 7.122 5.926 7.122h6.087v3.863H63.02c-7.168 0-10.812-3.743-10.812-10.986V10.982c0-7.124 3.644-10.925 10.46-10.925h5.44zm62.527 34.976h-3.818V11.34c0-7.425 2.707-11.284 9.637-11.284 7.05 0 9.634 3.74 9.634 11.284v23.693h-3.82V11.34c0-4.157-.764-7.425-5.814-7.425-4.82 0-5.82 3.087-5.82 7.425v23.693zM16.39 1.923L15.085 5.55l-2.21-.813c-4.083-1.5-7.117-1.616-8.662 2.68-1.732 4.798 1.33 6.37 5.64 7.95 6.237 2.296 8.393 7.768 6.365 13.402-2.21 6.138-7.467 7.364-13.045 5.312l-2.7-.994 1.305-3.63 2.207.814c4.033 1.482 7.12 1.42 8.686-2.936 1.788-4.966-.868-7.143-5.392-8.806-6.185-2.275-8.586-7.074-6.592-12.6C2.548.743 7.5-1.346 13.576.89l2.815 1.034zM33.618 18.87v12.3h4.586c4.05 0 7.165-1.08 7.165-6.244 0-4.396-2.528-6.056-7.165-6.056h-4.586zm0-14.952v11.09h4.586c4.637 0 7.165-1.602 7.165-5.76 0-3.976-2.587-5.33-7.165-5.33h-4.586zM29.8 35.033V.057h8.403c7.342 0 10.983 3.19 10.983 9.19 0 4.277-2.058 6.352-5.287 7.72 3.467 1.244 5.286 3.62 5.286 7.957 0 6.767-3.7 10.11-10.983 10.11H29.8zM132.94 54.02v31.177h13.16v3.858h-16.978V54.02h3.817zm-53.83 0v3.858h-5.475c-4.934 0-6.696 2.316-6.696 7.067v4.226h12.17v3.86H66.94v5.04c0 4.692 1.995 7.127 5.992 7.127h6.18v3.858h-5.184c-7.163 0-10.81-3.74-10.81-10.985V64.945c0-7.127 3.647-10.925 10.46-10.925h5.533zm-43.023 0v3.858H30.71c-4.933 0-6.76 2.316-6.76 7.067v4.226h12.137v3.86H23.95v5.046c0 4.693 2.06 7.127 6.055 7.127h6.082v3.858h-5.083c-7.163 0-10.876-3.74-10.876-10.984v-13.13c0-7.128 3.713-10.926 10.523-10.926h5.437zm-19.998 0v3.858H9.927c-4.227 0-5.992 2.017-5.992 7.067v4.226H16.09v3.86H3.935v16.03H.118V64.946c0-7.363 3.584-10.925 10.75-10.925h5.22zm70.69 3.858v12.176h4.113c3.935 0 7.52-.713 7.52-6.177 0-5.05-3.056-6-7.52-6H86.78zm22.585 11.287h11.633V65.15c0-4.692-1.586-7.242-5.817-7.242-4.107 0-5.815 2.492-5.815 7.242v4.015zm0 3.858v16.032H101L90.773 73.85H86.78v15.205h-3.82V54.02h7.933c7.576 0 11.336 3.145 11.336 9.74 0 6.292-3.118 8.31-7.343 9.557l10.66 15.373V65.15c0-7.362 3.76-11.106 9.634-11.106 6.17 0 9.638 3.683 9.638 11.106v23.905h-3.82V73.023h-11.633zm-65.44-15.145v27.32h4.912c5.29 0 6.456-2.318 6.456-7.603V65.42c0-5.583-1.463-7.542-6.456-7.542h-4.913zm-3.82 31.177V54.02h8.325c7.752 0 10.68 2.612 10.68 12.053V77c0 9.503-2.928 12.055-10.68 12.055h-8.326zm58.174 51.107v-31.118h7.93c7.58 0 11.34 3.15 11.34 9.74 0 6.295-3.115 8.312-7.346 9.56l9.287 15.676h-4.762l-8.635-15.14h-3.997v15.14H89.94c-7.17 0-10.813-3.74-10.813-10.985v-13.063c0-7.124 3.642-10.928 10.46-10.928h5.515v3.86H89.65c-4.94 0-6.705 2.318-6.705 7.068v4.217h12.157v3.86H82.945v4.985c0 4.69 2.004 7.127 5.998 7.127h9.336zm3.816-27.257v12.11h4.114c3.935 0 7.52-.65 7.52-6.11 0-5.05-3.053-6-7.52-6h-4.114zm69.048-3.86l7.814 15.32 7.875-15.32h4.227l-10.4 19.003v15.972h-3.82v-15.972l-8.2-15.143h-8.52v31.115h-3.82v-31.115l-9.184-.017v-3.86l24.028.016zm-171.026 0h3.818v24.226c0 4.278.695 7.424 5.69 7.424 4.76 0 5.692-3.027 5.692-7.423v-24.226h3.82v24.227c0 7.484-2.812 11.285-9.51 11.285-6.933 0-9.51-3.8-9.51-11.284v-24.226zm27.514 34.975h-3.818v-24.23c0-7.42 2.705-11.278 9.637-11.278 7.05 0 9.635 3.74 9.635 11.28v24.228h-3.818v-24.23c0-4.154-.76-7.42-5.816-7.42-4.816 0-5.818 3.088-5.818 7.42v24.23zm24.313 0h-3.823v-34.976h3.823v34.976zm1.776-34.976h4.057l7.992 29.926h.818l7.522-29.926h4.054l-9.28 34.976h-5.877l-9.286-34.976zm81.965 1.407l-1.057 3.71-2.26-.652c-4.175-1.21-7.195-.914-8.44 3.485-1.394 4.907 1.767 6.132 6.174 7.405 6.384 1.85 8.91 7.154 7.274 12.92-1.78 6.28-6.938 7.748-12.642 6.094l-2.77-.8 1.057-3.71 2.26.65c4.12 1.2 7.195 1.04 8.46-3.41 1.44-5.08-1.355-7.067-5.99-8.406-6.324-1.834-9.047-6.33-7.445-11.978 1.505-5.31 6.286-7.94 12.5-6.14l2.88.833zm9.218 33.57h-3.818v-34.976h3.818v34.976z"/></svg>