<svg xmlns="http://www.w3.org/2000/svg" width="134" height="101"><path fill="#FFF" d="M68.67.04v24.012h-5.955L55.65 13.716h-2.955v10.336h-2.65V.042h5.687C60.99.04 63.6 2.22 63.6 6.793c0 4.367-2.16 5.768-5.097 6.632l7.52 10.456V.042h2.648zM52.696 2.717v8.322h3.037c2.73 0 5.218-.37 5.218-4.163 0-3.5-2.12-4.16-5.218-4.16h-3.037zm21.332 10.337v11H71.38V7.65c0-5.108 2.687-7.61 6.764-7.61 4.28 0 6.89 2.46 6.89 7.61v16.402h-2.65v-11h-8.357zm0-2.678h8.356V7.65c0-3.254-1.305-5.027-4.24-5.027-2.853 0-4.116 1.732-4.116 5.028v2.725zM17 24.052h-2.648V.042H17v24.01zM47.04.042v2.674h-3.733c-3.423 0-4.6 1.61-4.6 4.902v2.715h8.333v2.68h-8.332v3.42c0 3.252 1.338 4.94 4.11 4.94h4.222v2.68h-3.528c-4.973 0-7.5-2.597-7.5-7.62V7.617c0-4.942 2.527-7.577 7.255-7.577h3.773zm43.62 24.01h-2.65V7.867c0-5.15 2.002-7.828 6.808-7.828 4.89 0 6.847 2.594 6.847 7.827v16.185h-2.65V7.867c0-2.884-.693-5.15-4.197-5.15-3.343 0-4.16 2.14-4.16 5.15v16.185zM11.565 1.335l-.92 2.515-1.56-.564c-2.883-1.04-5.023-1.12-6.113 1.86-1.223 3.328.94 4.417 3.98 5.513 4.4 1.592 5.922 5.138 4.49 9.047-1.56 4.258-5.27 5.11-9.204 3.685l-1.907-.69.92-2.518 1.56.566c2.844 1.027 5.023.984 6.128-2.038 1.262-3.445-.612-4.704-3.804-5.858C.77 11.276-.922 7.947.484 4.114 1.798.515 5.294-.933 9.58.62l1.986.717zm11.467 11.712v8.325h3.18c2.81 0 4.972-.75 4.972-4.332 0-3.05-1.753-3.993-4.97-3.993h-3.182zm0-10.33v7.652h3.18c3.22 0 4.972-1.072 4.972-3.955 0-2.76-1.795-3.7-4.97-3.7h-3.182zM20.385 24.05V.042h5.83c5.092 0 7.618 2.21 7.618 6.373 0 2.967-1.428 4.365-3.667 5.313 2.405.864 3.667 2.304 3.667 5.312 0 4.694-2.567 7.012-7.62 7.012h-5.828zm72.302 13.97v21.335H102v2.676H90.038v-24.01h2.65zm-37.67 0V40.7h-3.8c-3.422 0-4.57 1.607-4.57 4.902v2.748h8.37v2.676h-8.37v3.387c0 3.254 1.31 4.944 4.083 4.944h4.287v2.676H51.42c-4.968 0-7.423-2.595-7.423-7.62v-8.81c0-4.945 2.455-7.58 7.18-7.58h3.84zm-29.992 0V40.7H21.37c-3.424 0-4.692 1.607-4.692 4.902v2.748h8.347v2.676h-8.347v3.39c0 3.255 1.43 4.945 4.2 4.945h4.147v2.677h-3.453c-4.968 0-7.544-2.594-7.544-7.62v-8.815c0-4.944 2.576-7.58 7.3-7.58h3.697zm-13.983 0V40.7H6.806c-2.933 0-4.158 1.4-4.158 4.902v2.748h8.394v2.676H2.648v11.01H0V45.603c0-5.108 2.486-7.58 7.457-7.58h3.585zM60.667 40.7v8.336h2.853c2.73 0 5.215-.42 5.215-4.21 0-3.504-2.12-4.126-5.215-4.126h-2.853zm15.997 7.645h8.363v-2.82c0-3.256-1.283-5.025-4.218-5.025-2.85 0-4.146 1.73-4.146 5.024v2.82zm0 2.677v11.01H70.53L63.437 51.67h-2.77v10.363h-2.65v-24.01h5.503c5.255 0 7.864 2.145 7.864 6.72 0 4.365-2.163 5.69-5.093 6.557l7.726 10.48V45.524c0-5.107 2.72-7.704 6.793-7.704 4.278 0 6.867 2.555 6.867 7.704v16.51h-2.65V51.02h-8.363zM30.68 40.7v18.657h3.226c3.67 0 4.478-1.607 4.478-5.274V45.93c0-3.87-1.014-5.23-4.478-5.23H30.68zm-2.65 21.333v-24.01h5.593c5.377 0 7.41 1.813 7.41 8.36v7.287c0 6.592-2.033 8.363-7.41 8.363H28.03zm40.344 35.315V76.044h5.5c5.26 0 7.867 2.104 7.867 6.676 0 4.366-2.16 5.765-5.094 6.632l6.442 10.67h-3.304l-5.99-10.3h-2.772v10.3H62.51c-4.975 0-7.5-2.592-7.5-7.62v-8.778c0-4.942 2.525-7.58 7.254-7.58h3.785v2.678h-3.742c-3.427 0-4.65 1.607-4.65 4.902v2.725h8.39v2.676h-8.39v3.377c0 3.254 1.39 4.945 4.16 4.945h6.556zm2.648-18.626v8.32h2.853c2.73 0 5.218-.45 5.218-4.24 0-3.502-2.12-4.08-5.218-4.08h-2.853zm48.3-2.678l5.54 10.346 5.623-10.346h2.933l-7.375 12.9v11.08h-2.65v-11.08l-5.81-10.222h-5.91v21.3h-2.65v-21.3l-6.007-.012v-2.678l16.305.012zM0 76.044h2.648v16.523c0 2.968.845 5.15 4.31 5.15 3.302 0 4.39-2.1 4.39-5.15V76.044H14v16.523c0 5.192-2.393 7.83-7.04 7.83-4.81 0-6.958-2.638-6.958-7.83V76.044zm19.046 23.98h-2.648V83.497c0-5.147 1.795-7.823 6.604-7.823 4.89 0 6.683 2.594 6.683 7.823v16.525h-2.648V83.498c0-2.882-.528-5.147-4.035-5.147-3.34 0-3.956 2.142-3.956 5.148v16.525zm16.986 0H33.38v-23.98h2.652v23.98zm1.352-23.98h2.814l5.544 20.477h.57l5.216-20.476h2.812l-6.64 23.98h-4.075l-6.24-23.98zm57.22.734l-.734 2.574-1.567-.454c-2.897-.838-4.99-.633-5.856 2.418-.966 3.404 1.227 4.253 4.283 5.137 4.43 1.283 6.18 4.963 5.046 8.962-1.235 4.356-4.812 5.375-8.77 4.228l-1.92-.556.732-2.572 1.567.45c2.86.833 4.992.722 5.87-2.366.998-3.525-.94-4.903-4.156-5.832-4.388-1.272-6.277-4.39-5.165-8.308 1.043-3.684 4.36-5.508 8.67-4.26l1.998.578zm6.072 23.245h-2.65v-23.98h2.65v23.98z"/></svg>