<svg xmlns="http://www.w3.org/2000/svg" width="175" height="106"><path fill="#FFF" d="M59.997 29.976V5.95h5.378c5.19 0 7.663 2.248 7.663 6.784 0 5.152-2.716 6.866-7.663 6.866H62.61v10.376h-2.613zm2.613-21.37v8.34h2.765c3.098 0 5.053-.696 5.053-4.212 0-3.308-1.755-4.128-5.053-4.128H62.61zM13.62 5.958V26.05l8.233-20.092h3.18v24.025h-2.616V9.743l-8.236 20.24h-3.174V5.958h2.614zm32.385 0V26.05l8.43-20.092h3.176v24.025h-2.613V9.743l-8.427 20.24h-3.178V5.958h2.613zm38.003-.008v2.656h-2.296c-2.935 0-4.103 1.718-4.103 4.863v8.943c0 3.148 1.167 4.907 4.102 4.907h2.296v2.656H81.91c-4.262 0-6.916-2.575-6.916-7.563V13.47c0-5.026 2.654-7.52 6.917-7.52h2.098zm20.038 0v20.19l8.432-20.19h3.178v24.026h-2.614V9.833l-8.43 20.143h-6.35l-9.63-11.436v11.436h-2.614V5.95h2.614v10.708L97.135 5.95h3.058l-9.26 11.404 10.5 12.26V5.95h2.613zm16.6 0v20.19l8.184-20.19h3.175v24.075h-2.61V9.833l-8.187 20.192h-3.175V5.95h2.613zm-.39-4.112L122.145 0c1.044.98 2.047 1.757 3.134 1.757 1.25 0 2.294-.694 3.382-1.757l1.847 1.838c-1.65 1.678-3.3 2.577-5.15 2.577-1.97 0-3.456-1.02-5.105-2.577M9.035 5.95v2.656H6.732c-2.935 0-4.1 1.718-4.1 4.863v8.992c0 3.147 1.165 4.858 4.1 4.858h2.303v2.656H6.937c-4.263 0-6.92-2.526-6.92-7.514V13.47c0-5.026 2.657-7.52 6.92-7.52h2.098zm21.607 12.67v4.456c0 2.78 1.328 4.293 3.823 4.293 2.452 0 3.994-1.515 3.994-4.254 0-2.78-1.865-4.495-5.04-4.495h-2.778zM28.026 5.977H39v2.658h-8.358v7.328h2.576c4.623 0 7.854 2.413 7.854 7.072 0 4.374-2.707 6.99-6.566 6.99-4.062 0-6.48-2.7-6.48-6.825V5.975zM139.2 84.63c-3.378 0-4.585 1.5-4.585 4.772v2.89h8.404v2.66h-8.405v3.44c0 3.23 1.365 4.905 4.1 4.905h4.304v2.69h-3.62c-4.905 0-7.4-2.608-7.4-7.596v-8.988c0-4.906 2.495-7.43 7.16-7.43h18.863v2.66h-7.027v21.354h-2.614V84.63H139.2zM35.024 81.974v20.1l8.82-20.1h3.177v23.982h-2.613V85.89l-8.82 20.065h-3.18V81.973h2.617zm13.978 23.982V81.973h5.752c5.026 0 7.52 2.257 7.52 6.386 0 2.943-1.408 4.372-3.62 5.312 2.374.857 3.62 2.432 3.62 5.416 0 4.66-2.534 6.867-7.52 6.867h-5.752zm2.614-10.973v8.315h3.138c2.775 0 4.906-.652 4.906-4.21 0-3.025-1.73-4.105-4.906-4.105h-3.138zm0-10.32v7.662h3.138c3.175 0 4.906-1.1 4.906-3.965 0-2.74-1.77-3.698-4.906-3.698h-3.138zm23.416-2.69v2.69h-3.82c-3.38 0-4.586 1.47-4.586 4.74v2.922h8.406v2.658h-8.406v3.41c0 3.23 1.368 4.905 4.103 4.905h4.302v2.658h-3.62c-4.907 0-7.4-2.576-7.4-7.564v-8.988c0-4.906 2.493-7.43 7.16-7.43h3.86zm1.957 23.983V81.973h5.426c5.188 0 7.762 2.28 7.762 6.818 0 5.15-2.816 6.868-7.762 6.868h-2.813v10.297H76.99zm2.613-21.293V93h2.813c3.1 0 5.147-.695 5.147-4.21 0-3.31-1.85-4.128-5.147-4.128h-2.813zm21.38-2.69v2.69h-2.232c-2.936 0-4.1 1.717-4.1 4.865v8.864c0 3.15 1.164 4.907 4.1 4.907h2.234v2.658h-2.03c-4.265 0-6.92-2.576-6.92-7.564v-8.863c0-5.03 2.655-7.554 6.92-7.554h2.03zm3.626 0v20.1l8.23-20.1h3.176v23.983H113.4V85.89l-8.227 20.065h-3.177V81.973h2.613zm12.644 0h14.197v2.69h-5.79v21.293h-2.616V84.662h-5.79v-2.69zm-97.596 0v9.977H27.4v-9.977h2.617v23.982H27.4V94.607H19.66v11.348h-2.614V82.193L5.55 105.95H2.492L7.64 94.993.16 81.974h3.056l5.83 10.075 4.99-10.077h5.622zM8.388 43.996H11v3.226h1.093c4.264 0 6.917 2.495 6.917 7.523v2.29c0 4.983-2.653 7.56-6.917 7.56h-1.093v3.352H8.387v-3.352H6.915C2.653 64.593 0 62.016 0 57.033v-2.29c0-5.028 2.653-7.522 6.915-7.522h1.472v-3.225zM11 49.88v12.057h1.295c2.936 0 4.1-1.76 4.1-4.905v-2.29c0-3.145-1.164-4.863-4.1-4.863h-1.295zM8.387 61.936V49.88h-1.67c-2.936 0-4.102 1.717-4.102 4.863v2.29c0 3.145 1.166 4.904 4.1 4.904h1.672zm99.65-17.942v23.95h-2.617V46.65h-3.31c-2.937 0-4.104 1.593-4.104 4.74v7.48c0 4.866-.685 7.153-4.987 9.075h-2.616V56.97H82.32v10.975h-2.617V51.272c0-5.068 2.635-7.646 6.656-7.646 4.223 0 6.66 2.536 6.66 7.646v13.854c2.068-1.32 2.374-2.514 2.374-6.01V51.39c0-5.026 2.65-7.395 6.916-7.395h5.726zm-25.718 10.32h8.084V51.27c0-3.23-1.15-4.987-4.045-4.987-2.815 0-4.04 1.715-4.04 4.987v3.042zm27.715 13.69v-24.01h2.612v10.318h2.695c5.31 0 7.962 2.863 7.962 6.828 0 4.66-2.532 6.865-7.517 6.865h-5.752zm2.612-11.033v8.378h3.14c2.773 0 4.906-.653 4.906-4.21 0-2.86-1.732-4.168-4.906-4.168h-3.14zM65.03 67.945v-23.95h5.24c5.19 0 7.764 2.186 7.764 6.724 0 5.148-2.816 6.93-7.764 6.93h-2.627v10.295H65.03zm2.613-21.294v8.34h2.627c3.098 0 5.15-.757 5.15-4.27 0-3.313-1.85-4.07-5.15-4.07h-2.627zm72.384 21.355v-24.01h2.615v10.318h3.38c5.308 0 7.964 2.863 7.964 6.828 0 4.66-2.535 6.865-7.52 6.865h-6.44zm2.615-11.033v8.378h3.824c2.776 0 4.907-.653 4.907-4.21 0-2.86-1.73-4.168-4.907-4.168h-3.824zm-88.033-5.58v2.922l8.48.038v2.618h-8.48v3.413c0 3.228 1.365 4.906 4.1 4.906h4.303v2.655h-3.62c-4.905 0-7.4-2.575-7.4-7.562V51.39c0-4.904 2.495-7.395 7.16-7.395h3.86v2.656h-3.82c-3.38 0-4.584 1.47-4.584 4.74m73.003-7.395v10.318h7.777V43.995h2.613v24.01h-2.613V56.972h-7.777v11.033H125v-24.01h2.613zm30.4 24.01H155.4v-24.01h2.616v24.01zm4.624-24.01v20.13l8.193-20.13h3.18v24.01h-2.614V47.817L163.2 68.005h-3.177v-24.01h2.614zm-.616-4.516l1.89-1.84c1.05.98 2.05 1.756 3.14 1.756 1.243 0 2.292-.693 3.376-1.757l1.85 1.84c-1.647 1.673-3.297 2.572-5.15 2.572-1.968 0-3.458-1.022-5.105-2.573M46.015 65.492V46.65H41.78c-2.94 0-4.17 1.593-4.17 4.74v7.48c0 2.453-.216 4.95-1.3 6.623h9.704zm2.613-21.498v21.498h3.013v5.498h-2.615v-3.045H33.648v3.046h-2.613v-3.045h-2.64c-4.907 0-7.4-2.575-7.4-7.562v-8.867c0-4.904 2.493-7.52 7.157-7.52h3.86v2.655h-3.82c-3.377 0-4.583 1.596-4.583 4.866v2.735h8.403v2.658H23.61v3.475c0 3.228 1.368 4.906 4.098 4.906h3.868l1.515-.08c2.052-1.47 1.907-3.113 1.907-6.094V51.39c0-5.026 2.72-7.395 6.982-7.395h6.647z"/></svg>