<svg xmlns="http://www.w3.org/2000/svg" width="40" height="40"><path fill-rule="evenodd" clip-rule="evenodd" fill="#FFF" d="M34.48 24.973c-.196 1.373-.959 2.423-2.888 2.485-1.405.045-2.43-.57-3.622-.91-2.976-.85-5.363-.675-6.792-.386a1.58 1.58 0 0 0 .448-1.1c0-.797-.597-1.46-1.38-1.586V22.36c.774-.134 1.361-.793 1.361-1.584 0-.79-.587-1.447-1.361-1.582v-1.11c.4-.065.753-.27 1-.563l.986.553c-.062.17-.097.354-.097.546 0 .797.597 1.459 1.38 1.586v1.108c-.783.128-1.38.79-1.38 1.587 0 .889.742 1.609 1.657 1.609s1.657-.72 1.657-1.609c0-.797-.597-1.459-1.38-1.587v-1.108c.783-.127 1.38-.789 1.38-1.586 0-.889-.742-1.609-1.657-1.609-.52 0-.983.232-1.288.596l-.98-.55c.066-.174.102-.363.102-.56 0-.84-.663-1.53-1.507-1.602a1.5 1.5 0 0 0-.116-.009l.004-2.386c.139.1.236.194.379.29.137.099.313.213.531.337a14.668 14.668 0 0 0 7.613 2.111c2.109 0 4.142-.213 5.949-1.005l.01 10.457s.019.225-.009.282zm-14.783-5.79c-.792.121-1.398.787-1.398 1.59s.606 1.47 1.398 1.59v1.108a1.66 1.66 0 0 0-1.01.573l-1.013-.568c.063-.171.097-.355.097-.545 0-.798-.597-1.46-1.38-1.587v-1.109c.783-.128 1.38-.79 1.38-1.586 0-.89-.742-1.609-1.656-1.609-.915 0-1.657.72-1.657 1.609 0 .797.597 1.458 1.38 1.586v1.109c-.783.127-1.38.789-1.38 1.587 0 .887.742 1.608 1.657 1.608.52 0 .984-.232 1.287-.597l1.013.568c-.064.17-.099.355-.099.547 0 .884.783 1.603 1.693 1.609l-.007 1.833c-1.15-1.799-4.125-3.116-7.685-3.264a15.872 15.872 0 0 0-.894-.025c-2.11 0-4.114.472-5.923 1.321l.004-13.34s2.804 1.736 6.513 1.632c2.669-.075 2.105-.228 3.799-.287 2.222-.076 3.9 1.397 3.895 3.547 0 .02 0 .426-.003 1.07l-.01.03z"/></svg>