<svg xmlns="http://www.w3.org/2000/svg" width="254" height="154"><path fill="#FFF" d="M87.033 44.017V9h7.93c7.578 0 11.335 3.41 11.335 9.998 0 7.484-4.11 9.973-11.336 9.973h-4.11v15.047h-3.82zm3.818-31.16v12.258h4.112c4.524 0 7.524-1.01 7.524-6.117 0-4.805-2.707-6.14-7.524-6.14h-4.11zM19.82 9.013V38.34L31.365 9.013h4.643v34.97h-3.82v-29.33L20.64 43.984h-4.637V9.012h3.817zm47.04 0V38.34L78.4 9.013h4.642v34.97h-3.818v-29.33l-11.54 29.33h-4.642V9.012h3.817zM120.042 9v3.857h-2.2c-4.29 0-5.994 2.495-5.994 7.064v13.112c0 4.572 1.704 7.127 5.992 7.127h2.2v3.857h-1.91c-6.226 0-10.103-3.74-10.103-10.985v-13.11c0-7.3 3.876-10.923 10.102-10.923h1.91zm30.038 0V38.47L161.96 9h4.646v35.017h-3.818V14.783l-11.885 29.234h-9.079L127.83 27.432v16.585h-3.82V9h3.82v15.698l12.347-15.7h4.467L131.12 25.71l15.142 17.882V9h3.82zM174.4 9V38.47L186.378 9h4.636v35.017H187.2V14.783l-11.982 29.234h-4.637V9h3.818zm-.644-6.33L176.516 0c1.526 1.424 2.99 2.552 4.578 2.552 1.824 0 3.35-1.007 4.94-2.552l2.7 2.67c-2.41 2.437-4.818 3.743-7.52 3.743-2.88 0-5.05-1.48-7.46-3.743M12.017 9v3.857h-2.21c-4.287 0-5.99 2.495-5.99 7.064v13.112c0 4.572 1.703 7.127 5.99 7.127h2.21v3.857h-1.91C3.88 44.017 0 40.277 0 33.032v-13.11c0-7.3 3.88-10.923 10.106-10.923h1.91zm32.017 17.97v7.05c0 4.038 2.422 6.236 6.066 6.236 3.582 0 6.05-2.198 6.05-6.178 0-4.036-2.938-7.107-7.576-7.107h-4.54zm-3.82-17.975h15.79v3.86h-11.97V23.11h4.244c6.753 0 11.69 4.083 11.69 10.85 0 6.353-4.17 10.154-9.808 10.154-5.933 0-9.947-3.922-9.947-9.915V8.994zm167.59 112.87h-5.58c-4.932 0-6.408 2.373-6.408 7.123v4.155h12.22v3.86h-12.22v5.042c0 4.693 1.706 7.127 5.702 7.127h6.517v3.86h-5.517c-7.166 0-10.52-3.742-10.52-10.987v-13.057c0-7.127 3.354-10.985 10.166-10.985h26.875v3.86h-9.214v31.168h-3.816v-31.166h-8.205zm-156.927-3.862v29.388l11.88-29.33h4.64v34.97H63.58v-29.327L51.7 153.03h-4.643v-35.027h3.82zm20.1 35.028v-35.027h8.402c7.34 0 10.982 3.326 10.982 9.322 0 4.277-2.055 6.41-5.286 7.775 3.467 1.246 5.286 3.622 5.286 7.958 0 6.767-3.7 9.973-10.983 9.973h-8.402zm3.818-16.026v12.168h4.584c4.053 0 7.165-.95 7.165-6.114 0-4.396-2.528-6.054-7.166-6.054h-4.585zm0-15.14v11.28h4.584c4.637 0 7.165-1.662 7.165-5.82 0-3.978-2.586-5.46-7.166-5.46h-4.585zm33.206-3.86v3.86h-4.946c-4.937 0-6.7 2.374-6.7 7.124v4.155h11.647v3.86H96.356v5.042c0 4.693 2 7.127 5.993 7.127H108v3.86h-4.653c-7.168 0-10.81-3.742-10.81-10.987v-13.057c0-7.127 3.642-10.985 10.457-10.985H108zm4.007 35.027v-35.027h7.926c7.578 0 11.34 3.268 11.34 9.857 0 7.48-4.115 10.148-11.34 10.148h-4.11v15.023h-3.816zm3.817-31.166v12.283h4.11c4.525 0 7.517-1.182 7.517-6.287 0-4.807-2.7-5.996-7.517-5.996h-4.11zm30.23-3.86v3.86h-2.233c-4.29 0-5.99 2.552-5.99 7.124v13.057c0 4.575 1.7 7.127 5.99 7.127h2.235v3.86h-1.94c-6.227 0-10.105-3.742-10.105-10.987v-13.057c0-7.305 3.878-10.985 10.104-10.985h1.94zm6.42 0v29.387l11.886-29.387H169v35.028h-3.82v-29.327L153.3 153.03h-4.643v-35.027h3.818zm18.61 0h20.735v3.86h-8.46v31.167h-3.818v-31.166h-8.46v-3.86zm-142.603 0v15.14h11.63v-15.14h3.82v35.027h-3.82v-16.026H28.48v16.027h-3.817v-34.753l-16.79 34.717H3.407l7.518-15.34L0 118.004h4.464l8.518 15.375 7.285-15.377h8.214zM12.16 63.026h3.82v4.995h1.96c6.227 0 10.102 3.78 10.102 11.082v3.482c0 7.238-3.875 11.388-10.103 11.388h-1.96V98h-3.82v-4.026H10.1c-6.225 0-10.1-4.15-10.1-11.388v-3.482C0 71.8 3.875 68.022 10.1 68.022h2.06v-4.995zm3.82 8.856v18.232h2.255c4.287 0 5.99-2.96 5.99-7.53v-3.48c0-4.57-1.703-7.222-5.99-7.222H15.98zm-3.82 18.232V71.883H9.81c-4.287 0-5.99 2.65-5.99 7.22v3.483c0 4.568 1.703 7.53 5.99 7.53h2.35zM156.02 62.98v35.016h-3.82v-31.16h-4.512c-4.287 0-5.992 2.827-5.992 7.4V85.1c0 7.066-1.326 10.105-7.61 12.896h-3.82V82.863h-11.438v15.133h-3.82V73.93c0-7.365 3.57-11.108 9.442-11.108 6.17 0 9.636 3.683 9.636 11.107V93.9c3.022-1.917 3.794-3.367 3.794-8.444v-11.22c0-7.303 3.872-11.257 10.1-11.257h8.04zm-37.192 16.025h11.438V73.93c0-4.692-1.586-7.246-5.816-7.246-4.112 0-5.622 2.492-5.622 7.245v5.075zm40.383 19.03V63.023h3.816V78.15h3.937c7.755 0 11.63 4.157 11.63 9.916 0 6.768-3.698 9.97-10.98 9.97h-8.402zm3.816-16.025v12.17h4.586c4.052 0 7.166-.95 7.166-6.114 0-4.157-2.528-6.056-7.166-6.056h-4.586zm-69.5 15.986V62.98h7.93c7.58 0 11.482 3.454 11.482 10.045 0 7.48-4.255 9.976-11.483 9.976h-4.11v14.996h-3.82zm3.818-31.16V79.14h4.11c4.527 0 7.525-1.01 7.525-6.115 0-4.81-2.706-6.188-7.525-6.188h-4.11zm106.69 31.2v-35.06h3.82v15.173h3.935c7.75 0 11.632 4.157 11.632 9.916 0 6.768-3.705 9.97-10.986 9.97h-8.4zm3.82-16.026v12.17h4.582c4.052 0 7.168-.95 7.168-6.114 0-4.157-2.528-6.056-7.168-6.056h-4.58zm-129.64-8.107v4.25l11.822.007v3.852H78.214v5.002c0 4.686 1.996 7.124 5.993 7.124h5.81v3.858h-4.813c-7.166 0-10.81-3.74-10.81-10.982v-13.11c0-7.125 3.644-10.925 10.457-10.925h5.167v3.857H84.91c-4.936 0-6.696 2.316-6.696 7.066m106.638-10.928V78.15h11.635V62.974h3.818V97.99h-3.818V82.01h-11.635v15.98h-3.818V62.974h3.818zm44.084 35.06h-3.817v-35.06h3.816v35.06zm7.576-35.013v29.33l11.877-29.33h4.64V97.99h-3.813V68.663L237.334 97.99h-4.64V63.02h3.818zm-1.676-6.09l2.758-2.672c1.53 1.424 2.996 2.552 4.584 2.552 1.818 0 3.35-1.007 4.933-2.552l2.703 2.673c-2.407 2.43-4.815 3.737-7.522 3.737-2.874 0-5.05-1.485-7.454-3.737m-167.9 37.5V66.838h-5.635c-4.292 0-5.997 2.826-5.997 7.398v10.58c0 3.562-.407 7.187-1.993 9.62h13.627zm3.82-31.454v31.454h4.583v7.568h-3.822v-4.006H49.606v4.006h-3.818v-4.006H41.11c-7.166 0-10.902-3.74-10.902-10.982V74.188c0-7.125 3.736-11.208 10.55-11.208h5.26v3.86h-5.204c-4.93 0-6.788 2.597-6.788 7.347v4.203h11.992v3.858H34.026v4.766c0 4.686 2.093 7.124 6.082 7.124h6.288l2.213-.113c2.994-2.138 2.875-4.523 2.875-8.853V74.235c0-7.302 3.88-11.256 10.106-11.256h9.165z"/></svg>