<?xml version="1.0" encoding="UTF-8" standalone="no"?>
<svg
   xmlns:dc="http://purl.org/dc/elements/1.1/"
   xmlns:cc="http://creativecommons.org/ns#"
   xmlns:rdf="http://www.w3.org/1999/02/22-rdf-syntax-ns#"
   xmlns:svg="http://www.w3.org/2000/svg"
   xmlns="http://www.w3.org/2000/svg"
   xmlns:sodipodi="http://sodipodi.sourceforge.net/DTD/sodipodi-0.dtd"
   xmlns:inkscape="http://www.inkscape.org/namespaces/inkscape"
   height="88"
   width="264"
   version="1.1"
   viewBox="0 0 264 88"
   id="svg48"
   sodipodi:docname="default-skin.svg"
   inkscape:version="0.92.2 5c3e80d, 2017-08-06">
  <metadata
     id="metadata54">
    <rdf:RDF>
      <cc:Work
         rdf:about="">
        <dc:format>image/svg+xml</dc:format>
        <dc:type
           rdf:resource="http://purl.org/dc/dcmitype/StillImage" />
        <dc:title>default-skin 2</dc:title>
      </cc:Work>
    </rdf:RDF>
  </metadata>
  <defs
     id="defs52" />
  <sodipodi:namedview
     pagecolor="#ffffff"
     bordercolor="#666666"
     borderopacity="1"
     objecttolerance="10"
     gridtolerance="10"
     guidetolerance="10"
     inkscape:pageopacity="0"
     inkscape:pageshadow="2"
     inkscape:window-width="1920"
     inkscape:window-height="1110"
     id="namedview50"
     showgrid="false"
     inkscape:pagecheckerboard="true"
     inkscape:zoom="5.0783123"
     inkscape:cx="210.80648"
     inkscape:cy="44.066257"
     inkscape:window-x="0"
     inkscape:window-y="165"
     inkscape:window-maximized="1"
     inkscape:current-layer="svg48" />
  <title
     id="title2">default-skin 2</title>
  <path
     style="fill:#ffffff;fill-rule:evenodd"
     inkscape:connector-curvature="0"
     id="path4"
     d="m 67.002,59.5 v 3.768 C 60.695,64.108 57.818,69.018 57,73 59.22,70.17 62.564,67.902 67.002,67.902 V 71.5 L 73,65.585 Z" />
  <path
     style="fill:#ffffff;fill-rule:evenodd"
     inkscape:connector-curvature="0"
     id="path6"
     d="m 13,29 v -5 h 2 v 3 h 3 v 2 z m 0,-14 h 5 v 2 h -3 v 3 h -2 z m 18,0 v 5 h -2 v -3 h -3 v -2 z m 0,14 h -5 v -2 h 3 v -3 h 2 z" />
  <path
     style="fill:#ffffff;fill-rule:evenodd"
     inkscape:connector-curvature="0"
     id="path8"
     d="m 62,24 v 5 h -2 v -3 h -3 v -2 z m 0,-4 h -5 v -2 h 3 v -3 h 2 z m 8,0 v -5 h 2 v 3 h 3 v 2 z m 0,4 h 5 v 2 h -3 v 3 h -2 z" />
  <path
     style="fill:#ffffff;fill-rule:evenodd"
     inkscape:connector-curvature="0"
     id="path10"
     d="M 20.586,66 14.93,60.344 16.344,58.93 22,64.586 27.656,58.93 29.07,60.344 23.414,66 29.07,71.656 27.656,73.07 22,67.414 16.344,73.07 14.93,71.656 Z" />
  <path
     style="fill:#ffffff;fill-rule:evenodd"
     inkscape:connector-curvature="0"
     id="path12"
     d="M 111.78,65.03 110,63.5 113,60 h -10 v -2 h 10 l -3,-3.5 1.785,-1.468 5.22,5.968 -5.215,6.03 z" />
  <path
     style="fill:#ffffff;fill-rule:evenodd"
     inkscape:connector-curvature="0"
     id="path14"
     d="M 152.22,65.03 154,63.5 151,60 h 10 v -2 h -10 l 3,-3.5 -1.785,-1.468 -5.22,5.968 5.215,6.03 z" />
  <g
     fill="none"
     id="g24">
    <path
       fill="#fff"
       d="m160.96 28.543-3.25-3.25-1.413 1.414 3.25 3.25z"
       id="path18" />
    <path
       stroke-width="1.5"
       d="m152.5 27c3.038 0 5.5-2.462 5.5-5.5s-2.462-5.5-5.5-5.5-5.5 2.462-5.5 5.5 2.462 5.5 5.5 5.5z"
       stroke="#fff"
       id="path20" />
    <path
       fill="#fff"
       d="m150 21h5v1h-5z"
       id="path22" />
  </g>
  <g
     fill="none"
     id="g34">
    <path
       fill="#fff"
       d="m116.96 28.543-1.414 1.414-3.25-3.25 1.414-1.414 3.25 3.25z"
       id="path26" />
    <path
       stroke-width="1.5"
       d="m108.5 27c3.038 0 5.5-2.462 5.5-5.5s-2.462-5.5-5.5-5.5-5.5 2.462-5.5 5.5 2.462 5.5 5.5 5.5z"
       stroke="#fff"
       id="path28" />
    <path
       fill="#fff"
       d="m106 21h5v1h-5z"
       id="path30" />
    <path
       fill="#fff"
       d="m109.04 19.008-0.085 5-1-0.017 0.085-5z"
       id="path32" />
  </g>
  <rect
     opacity="0.99"
     transform="rotate(90)"
     height="2"
     width="6.2858"
     y="-199.17"
     x="64.461"
     fill="#fff"
     id="rect42" />
  <rect
     opacity="0.99"
     transform="rotate(90)"
     height="2"
     width="2"
     y="-199.17"
     x="61.577"
     fill="#fff"
     id="rect44" />
  <circle
     opacity="0.99"
     cx="198.17"
     stroke="#fff"
     cy="65.957"
     r="6.4957"
     stroke-width="1.5"
     fill="none"
     id="circle46" />
  <path
     id="path1468"
     d="m 204.87831,29.4 h -12.33332 c -1.02119,0 -1.84999,-0.826335 -1.84999,-1.85 v -2.466664 c 0,-1.018736 0.8288,-1.85 1.84999,-1.85 h 0.59566 l 5.54143,5.562329 5.51792,-5.562329 h 0.67831 c 1.0212,0 1.85,0.830029 1.85,1.85 V 27.55 c 0,1.023665 -0.8288,1.85 -1.85,1.85 z m -6.19871,-3.083335 -6.7636,-6.7895 h 3.68519 V 14.6 h 6.19381 v 4.927165 h 3.62108 l -6.73648,6.787036 z"
     inkscape:connector-curvature="0"
     style="clip-rule:evenodd;fill:#ffffff;fill-rule:evenodd;stroke-width:1.23333311" />
</svg>
